<svg id="Layer_1" data-name="Layer 1" xmlns="http://www.w3.org/2000/svg" viewBox="0 0 691.2 682.97"><defs><style>.cls-1{fill:#fff;}</style></defs><title>Compassion Card Games_LOGO_White</title><path class="cls-1" d="M762.87,123.77l-368-32.2a16.13,16.13,0,0,0-17.48,14.66L331.25,633.37a16.13,16.13,0,0,0,14.67,17.48l368,32.2a16.13,16.13,0,0,0,17.48-14.66l46.12-527.13A16.13,16.13,0,0,0,762.87,123.77ZM693.09,483.44q-2.77,6.47-7.58,16.08-3,5.92-4.07,8.5-3.7,8.87-17,14.79A185,185,0,0,1,618,538.34a281.06,281.06,0,0,1-53.79,4.81,161.77,161.77,0,0,1-113.87-46.21,158.56,158.56,0,0,1-34.57-50.28,147.57,147.57,0,0,1-12.39-59.52,156.49,156.49,0,0,1,12-60.44,160.39,160.39,0,0,1,34.2-51.57,158.17,158.17,0,0,1,53.05-35.31q30.86-12.75,67.47-12.75a252.43,252.43,0,0,1,30.32,2q16.64,2,34,5.36,0.74,0,7.76,1.48,13.31,3,18.49,3c0-.49.8-1,2.4-1.48a24.46,24.46,0,0,1,6.84-.74q6.65,0,8.5,4.81t1.85,14q0,5.18,1.11,17.75,0.74,9.25.74,13.68a8.83,8.83,0,0,1-2,5.55q-2,2.59-7.95,2.59a9.51,9.51,0,0,1-6.84-3.14q-3.15-3.13-8.69-9.8-6.29-7.77-11.28-12.94a42.38,42.38,0,0,0-11.65-8.5,118.11,118.11,0,0,0-26.62-9.24,140.08,140.08,0,0,0-29.58-3q-27.73,0-50.28,9.43a107.59,107.59,0,0,0-38.45,26.8,118,118,0,0,0-24.22,41q-8.32,23.66-8.32,51.76A159.59,159.59,0,0,0,491.41,477a121.91,121.91,0,0,0,37.52,31.24,93,93,0,0,0,44.18,11.28A179.25,179.25,0,0,0,597,517.82a167.3,167.3,0,0,0,25-5.36q28.84-8.5,45.1-24.4a30.42,30.42,0,0,0,4.81-5.55,71.19,71.19,0,0,1,7.76-8.5,10.46,10.46,0,0,1,7-3q4.44,0,6.66,1.48a6.29,6.29,0,0,1,2.59,2.59Q695.86,477,693.09,483.44ZM333,711.39l212.39-37.45L333,773a16.13,16.13,0,0,1-21.44-7.8L87.92,285.6a16.13,16.13,0,0,1,7.8-21.44L226.94,203,314.28,698.3A16.13,16.13,0,0,0,333,711.39Z" transform="translate(-86.4 -91.51)"/></svg>