<svg id="Layer_1" data-name="Layer 1" xmlns="http://www.w3.org/2000/svg" viewBox="0 0 684.9 263.48"><defs><style>.cls-1{fill:#fff;}</style></defs><title>Compassion Card Games_White</title><path class="cls-1" d="M699.56,186v13.25H422.66V186h276.9Zm-597,59.85L68.87,54.72,18.25,78.33a6.22,6.22,0,0,0-3,8.27l86.27,185a6.22,6.22,0,0,0,8.27,3l81.93-38.21-81.94,14.45A6.22,6.22,0,0,1,102.57,245.81Zm287.68-59.45v12.45H266.6l-3.1,35.46a6.22,6.22,0,0,1-6.74,5.66l-142-12.42a6.22,6.22,0,0,1-5.66-6.74L126.91,17.4a6.22,6.22,0,0,1,6.74-5.66l142,12.42a6.22,6.22,0,0,1,5.66,6.74l-13.6,155.46H390.25ZM249.78,159.71a2.43,2.43,0,0,0-1-1,4.68,4.68,0,0,0-2.57-.57,4,4,0,0,0-2.71,1.14,27.46,27.46,0,0,0-3,3.28,11.73,11.73,0,0,1-1.85,2.14q-6.28,6.13-17.4,9.41a64.54,64.54,0,0,1-9.63,2.07,69.15,69.15,0,0,1-9.2.64,35.89,35.89,0,0,1-17-4.35,47,47,0,0,1-14.48-12.05,61.57,61.57,0,0,1-13.55-38.37,59.84,59.84,0,0,1,3.21-20,45.52,45.52,0,0,1,9.34-15.83,41.51,41.51,0,0,1,14.83-10.34,49.83,49.83,0,0,1,19.4-3.64,54,54,0,0,1,11.41,1.14A45.57,45.57,0,0,1,225.82,77a16.35,16.35,0,0,1,4.49,3.28q1.93,2,4.35,5Q236.8,87.83,238,89a3.67,3.67,0,0,0,2.64,1.21q2.28,0,3.07-1a3.41,3.41,0,0,0,.78-2.14q0-1.71-.29-5.28Q243.79,77,243.79,75a15.86,15.86,0,0,0-.71-5.42q-0.72-1.85-3.28-1.85a9.44,9.44,0,0,0-2.64.29,1.14,1.14,0,0,0-.93.57,39.13,39.13,0,0,1-7.13-1.14q-2.71-.57-3-0.57Q219.4,65.58,213,64.8a97.38,97.38,0,0,0-11.7-.78,67.5,67.5,0,0,0-26,4.92,61,61,0,0,0-20.47,13.62,61.88,61.88,0,0,0-13.19,19.9A60.37,60.37,0,0,0,137,125.77a56.93,56.93,0,0,0,4.78,23,61.17,61.17,0,0,0,13.34,19.4A62.41,62.41,0,0,0,199,186a108.43,108.43,0,0,0,20.75-1.85,71.37,71.37,0,0,0,17.9-6q5.13-2.28,6.56-5.71,0.43-1,1.57-3.28,1.85-3.71,2.92-6.2A11.59,11.59,0,0,0,249.78,159.71Zm209.08,57.74a1.25,1.25,0,0,0,1-.33,1.13,1.13,0,0,0,.26-0.71q0-.57-0.09-1.76-0.14-1.62-.14-2.28a5.27,5.27,0,0,0-.24-1.81,1,1,0,0,0-1.09-.62,3.14,3.14,0,0,0-.88.1,0.38,0.38,0,0,0-.31.19,13.06,13.06,0,0,1-2.38-.38c-0.6-.13-0.94-0.19-1-0.19q-2.23-.43-4.37-0.69a32.46,32.46,0,0,0-3.9-.26,22.49,22.49,0,0,0-8.68,1.64,20.34,20.34,0,0,0-6.82,4.54,20.62,20.62,0,0,0-4.4,6.63,20.12,20.12,0,0,0-1.55,7.77,19,19,0,0,0,1.59,7.65,20.39,20.39,0,0,0,4.45,6.47A20.79,20.79,0,0,0,445,249.35a36.13,36.13,0,0,0,6.92-.62,23.8,23.8,0,0,0,6-2,3.91,3.91,0,0,0,2.19-1.9q0.14-.33.52-1.09,0.62-1.23,1-2.07a3.87,3.87,0,0,0,.36-1.07,0.81,0.81,0,0,0-.33-0.33,1.56,1.56,0,0,0-.86-0.19,1.35,1.35,0,0,0-.9.38,9.19,9.19,0,0,0-1,1.09,3.9,3.9,0,0,1-.62.71,13.68,13.68,0,0,1-5.8,3.14,21.59,21.59,0,0,1-3.21.69,23.07,23.07,0,0,1-3.07.21,12,12,0,0,1-5.68-1.45,15.68,15.68,0,0,1-4.83-4,20.19,20.19,0,0,1-3.3-5.9,20.7,20.7,0,0,1-.14-13.55,15.17,15.17,0,0,1,3.11-5.28,13.85,13.85,0,0,1,4.94-3.45,16.62,16.62,0,0,1,6.47-1.21,18,18,0,0,1,3.8.38,15.19,15.19,0,0,1,3.42,1.19,5.47,5.47,0,0,1,1.5,1.09q0.64,0.67,1.45,1.66T458,217A1.22,1.22,0,0,0,458.86,217.45Zm20.29,31.62a8,8,0,0,0,1.9-.26,8.21,8.21,0,0,0,1.85-.69,9.16,9.16,0,0,0,1.9-1,1.64,1.64,0,0,0,.86-1.09,1.3,1.3,0,0,0-.33-0.83,1.47,1.47,0,0,0-1.19-.4,5.35,5.35,0,0,0-1.76.38,2.08,2.08,0,0,1-.48.14,0.48,0.48,0,0,1-.48-0.19,3.67,3.67,0,0,1-.14-1q-0.33-6.23-.38-11.36v-1.76a7.75,7.75,0,0,0-.52-3.09A4.05,4.05,0,0,0,479,226a4.77,4.77,0,0,0-2-.76,17.34,17.34,0,0,0-2.57-.17,14.16,14.16,0,0,0-3.61.48,11.27,11.27,0,0,0-3,1.24,11,11,0,0,0-2.66,2.16,3.54,3.54,0,0,0-1,2.31q0,1,2.09,2.19a8.77,8.77,0,0,0,1.07.38,4.58,4.58,0,0,0,1.31.19,3.06,3.06,0,0,0,1.43-.4,1.13,1.13,0,0,0,.76-0.78,4.84,4.84,0,0,0-.1-0.76,5.29,5.29,0,0,1-.14-1,3.77,3.77,0,0,1,1-2.5,2.77,2.77,0,0,1,2-1.16,1.19,1.19,0,0,1,.9.81,4.7,4.7,0,0,1,.43,2.19v4.14a25.41,25.41,0,0,1-4,1.66q-1.85.67-3.07,1.16a10.83,10.83,0,0,0-2.26,1.26,6.25,6.25,0,0,0-1.71,1.88,5.06,5.06,0,0,0-.67,2.64,4.23,4.23,0,0,0,.59,2.16,6.63,6.63,0,0,0,1.64,1.85,8.26,8.26,0,0,0,2.35,1.31,7.66,7.66,0,0,0,2.64.48,7.4,7.4,0,0,0,2.4-.45,19.35,19.35,0,0,0,2.59-1.12,3.06,3.06,0,0,0,1.57,1.26A5.91,5.91,0,0,0,479.15,249.07Zm-4.28-5.32a4,4,0,0,1-2.52,1.81,2.11,2.11,0,0,1-1.83-1,4,4,0,0,1-.69-2.31,3.1,3.1,0,0,1,1.33-2.45,20.54,20.54,0,0,1,3.76-2.26Q474.92,241.84,474.87,243.74Zm17.73,4.9q1.24,0,2.64.07t3.59,0.26v-0.67a4.35,4.35,0,0,1-2-1.74,6,6,0,0,1-.76-2.73q-0.28-5.23-.29-8.22v-2.28a9.09,9.09,0,0,1,1.76-2.61,3.06,3.06,0,0,1,2.19-.86,0.5,0.5,0,0,1,.19.1,4,4,0,0,0,.9.45,3.29,3.29,0,0,0,1.09.17,1.5,1.5,0,0,0,1.21-.43,4.43,4.43,0,0,0,.64-1.09l0.09-.24a6.17,6.17,0,0,1,.38-0.67,4.21,4.21,0,0,0,.62-1.62,1.26,1.26,0,0,0-1.07-.9,5.81,5.81,0,0,0-1.93-.38,8.7,8.7,0,0,0-3.26.62,10.08,10.08,0,0,0-2.78,1.66v-1.24a1.14,1.14,0,0,0-.26-0.71,1.48,1.48,0,0,0-1.16-.33,6.74,6.74,0,0,0-1.95.21,5.65,5.65,0,0,0-1.33.64,4,4,0,0,1-1,.52,9.56,9.56,0,0,1-1.38.33,15.88,15.88,0,0,0-1.62.38,2.15,2.15,0,0,0-1,.62v0.48a3.49,3.49,0,0,1,2.69,1.57,5.63,5.63,0,0,1,.83,3q0,3.28,0,10.93a4.86,4.86,0,0,1-.71,2.59,4.45,4.45,0,0,1-1.9,1.74V249q2-.19,3.28-0.26T492.6,248.64Zm23.92-23.44a13.35,13.35,0,0,0-5,.9,10.45,10.45,0,0,0-3.76,2.52,11.24,11.24,0,0,0-2.33,3.73,12.93,12.93,0,0,0,0,9.13,13.1,13.1,0,0,0,2.38,3.95,11.27,11.27,0,0,0,3.57,2.73,9.73,9.73,0,0,0,4.33,1,10.91,10.91,0,0,0,3.28-.52,12.32,12.32,0,0,0,3-1.38,3.19,3.19,0,0,0,1.59,1.24,6,6,0,0,0,2.12.38,7.89,7.89,0,0,0,1.9-.26,9.26,9.26,0,0,0,1.9-.69,10.51,10.51,0,0,0,1.93-1.07,1.57,1.57,0,0,0,.83-1.07,1.4,1.4,0,0,0-.33-0.86,1.43,1.43,0,0,0-1.19-.43,5.35,5.35,0,0,0-1.76.38,2.6,2.6,0,0,1-.52.14,0.43,0.43,0,0,1-.45-0.19,5,5,0,0,1-.12-1q-0.38-7.46-.38-14.07,0-2.71,0-5.75t0.09-5.54q0.07-2.5.19-4.61a9,9,0,0,1,.31-2.45v-0.52a13.54,13.54,0,0,0-3.16.26,5.59,5.59,0,0,0-1.73.78,5.06,5.06,0,0,1-.9.48q-0.33.1-1.33,0.29a19.92,19.92,0,0,0-1.95.48,2.48,2.48,0,0,0-1.14.67v0.43a3.17,3.17,0,0,1,2.45,1.43,6.61,6.61,0,0,1,.74,2.9l0.1,1.66q0.19,2.66.21,3.57t0.07,2.28A12.59,12.59,0,0,0,516.52,225.2Zm0.86,2.71a4.93,4.93,0,0,1,2.35.5,5.41,5.41,0,0,1,1.74,1.59q0,9.46-.1,14.07v0.24a3.66,3.66,0,0,1-1.33.88,5.47,5.47,0,0,1-1.85.26,6,6,0,0,1-3.11-.81,7.06,7.06,0,0,1-2.28-2.21,10.42,10.42,0,0,1-1.38-3.11,13.91,13.91,0,0,1-.45-3.57,8.94,8.94,0,0,1,1.69-5.73A5.71,5.71,0,0,1,517.38,227.91Zm77,16.59q0-3.14,0-4.85t0.17-3.95l0-.62a14,14,0,0,1,.45-3.16,2.8,2.8,0,0,1,1.5-1.78l0.1-.57q-1.47.1-3.18,0.24Q592,230,591.21,230q-1.19,0-2.52-.1t-3.47-.29v0.57a5.43,5.43,0,0,1,2.09,2.09,10,10,0,0,1,.62,3.28q0.09,1.33.14,4.47c0,0.51,0,1,0,1.52v0a16.09,16.09,0,0,1-.17,2,1,1,0,0,1-.45.83q-2.76,1-4.85,1.66a12.75,12.75,0,0,1-3.47.62,11.06,11.06,0,0,1-5.54-1.5A15.63,15.63,0,0,1,569,241a19.94,19.94,0,0,1-3.14-6,22.08,22.08,0,0,1-1.12-7,19.54,19.54,0,0,1,1.09-6.66,15.46,15.46,0,0,1,3.14-5.28,13.85,13.85,0,0,1,4.94-3.45,16.49,16.49,0,0,1,6.42-1.21,14.57,14.57,0,0,1,7,1.66,5.56,5.56,0,0,1,1.57,1.19q0.71,0.76,1.62,1.95,0.76,1,1.21,1.43a1.26,1.26,0,0,0,.88.48,1,1,0,0,0,1-.59,2.88,2.88,0,0,0,.26-1.16q0-.52,0-1.62-0.1-1.43-.1-2.14,0-.47,0-1.09v-0.48a0.46,0.46,0,0,0-.26-0.36,1.72,1.72,0,0,0-.88-0.17q-0.29,0-.86,0a4.56,4.56,0,0,1-.9.1,3.62,3.62,0,0,1-1.19-.38,13.09,13.09,0,0,0-2.09-.67q-2.24-.43-4.37-0.69a32.44,32.44,0,0,0-3.9-.26,22.49,22.49,0,0,0-8.68,1.64,20.32,20.32,0,0,0-6.82,4.54,20.63,20.63,0,0,0-4.4,6.63,20.12,20.12,0,0,0-1.54,7.77,19,19,0,0,0,1.59,7.65,20.4,20.4,0,0,0,4.45,6.47,20.8,20.8,0,0,0,14.64,5.94,29.38,29.38,0,0,0,11-1.81q0.52-.19,1.62-0.52a15.65,15.65,0,0,0,2.14-.76,1.57,1.57,0,0,0,.78-0.78A2.46,2.46,0,0,0,594.35,244.5Zm19.36,4.56a8,8,0,0,0,1.9-.26,8.2,8.2,0,0,0,1.85-.69,9.18,9.18,0,0,0,1.9-1,1.64,1.64,0,0,0,.86-1.09,1.3,1.3,0,0,0-.33-0.83,1.47,1.47,0,0,0-1.19-.4,5.35,5.35,0,0,0-1.76.38,2.08,2.08,0,0,1-.48.14,0.48,0.48,0,0,1-.48-0.19,3.64,3.64,0,0,1-.14-1q-0.33-6.23-.38-11.36v-1.76a7.77,7.77,0,0,0-.52-3.09,4.05,4.05,0,0,0-1.4-1.78,4.77,4.77,0,0,0-2-.76,17.35,17.35,0,0,0-2.57-.17,14.16,14.16,0,0,0-3.61.48,11.27,11.27,0,0,0-3,1.24,11,11,0,0,0-2.66,2.16,3.53,3.53,0,0,0-1,2.31q0,1,2.09,2.19a8.77,8.77,0,0,0,1.07.38,4.58,4.58,0,0,0,1.31.19,3.05,3.05,0,0,0,1.43-.4,1.13,1.13,0,0,0,.76-0.78,4.82,4.82,0,0,0-.09-0.76,5.22,5.22,0,0,1-.14-1,3.77,3.77,0,0,1,1-2.5,2.77,2.77,0,0,1,2-1.16,1.19,1.19,0,0,1,.9.81,4.7,4.7,0,0,1,.43,2.19v4.14a25.39,25.39,0,0,1-4,1.66q-1.85.67-3.07,1.16a10.87,10.87,0,0,0-2.26,1.26,6.26,6.26,0,0,0-1.71,1.88,5,5,0,0,0-.67,2.64,4.23,4.23,0,0,0,.59,2.16,6.64,6.64,0,0,0,1.64,1.85,8.28,8.28,0,0,0,2.35,1.31A7.66,7.66,0,0,0,605,249a7.4,7.4,0,0,0,2.4-.45A19.34,19.34,0,0,0,610,247.4a3.06,3.06,0,0,0,1.57,1.26A5.9,5.9,0,0,0,613.71,249.07Zm-4.28-5.32a4,4,0,0,1-2.52,1.81,2.11,2.11,0,0,1-1.83-1,4,4,0,0,1-.69-2.31,3.1,3.1,0,0,1,1.33-2.45,20.51,20.51,0,0,1,3.76-2.26Q609.48,241.84,609.43,243.74Zm41.35,4.85q1.24,0,2.64.07t3.54,0.26v-0.67a4.6,4.6,0,0,1-2.76-4.47l-0.14-2.33q-0.09-2.28-.17-3.92t-0.07-3.4v-2.43a5.81,5.81,0,0,0-2.09-4.75,7.44,7.44,0,0,0-4.85-1.71,13.2,13.2,0,0,0-3.71.5,11.2,11.2,0,0,0-2.9,1.26,6.11,6.11,0,0,0-2.23-1.28,8.57,8.57,0,0,0-2.81-.48,11.92,11.92,0,0,0-5,1.09V226.2a0.42,0.42,0,0,0,0-.19,0.82,0.82,0,0,0-.29-0.67,1.79,1.79,0,0,0-1.09-.24,6.28,6.28,0,0,0-1.85.76,14.09,14.09,0,0,1-2.09,1l-1.28.33q-1.1.28-1.78,0.52a2.47,2.47,0,0,0-1.07.67v0.38q1.28,0.19,1.85.33a1.81,1.81,0,0,1,.86.43,1.45,1.45,0,0,1,.38.76,8.62,8.62,0,0,1,.1,1.52V233q0,3,0,10.93a4.83,4.83,0,0,1-.71,2.61,4.51,4.51,0,0,1-1.9,1.71v0.67q1.95-.19,3.26-0.26t2.5-.07q1.24,0,2.64.07t3.54,0.26v-0.67a4.6,4.6,0,0,1-2.76-4.47q-0.29-5.23-.29-8.23,0-1-.1-2.76-0.1-1.43-.1-1.85a4.62,4.62,0,0,1,1.52-1.31,4.44,4.44,0,0,1,2-.4,2.3,2.3,0,0,1,1.88,1,6.55,6.55,0,0,1,.78,3.76v4.71q0,1.81-.1,5.32a4.36,4.36,0,0,1-2.71,4.18v0.67q1.95-.19,3.26-0.26t2.5-.07q1.43,0,2.76,0t3.14,0.24v0h0.29q1.81-.19,3.07-0.26T650.78,248.59Zm-8.27-4.8q0-1-.14-3.23-0.1-2-.14-3.49t0-2.92v-2.43a7,7,0,0,0-.19-1.62,3.7,3.7,0,0,1,1.21-.83,4.25,4.25,0,0,1,1.59-.26,2.42,2.42,0,0,1,1,.24,2.7,2.7,0,0,1,1,.81,4.82,4.82,0,0,1,.76,1.57,8.28,8.28,0,0,1,.31,2.42v4.71q0,1.81-.09,5.32a4.32,4.32,0,0,1-2.57,4.09A4.64,4.64,0,0,1,642.51,243.79Zm37.64-9.37a8.18,8.18,0,0,0-1-4.21,8.89,8.89,0,0,0-2.64-2.88,12.29,12.29,0,0,0-3.26-1.62,10.11,10.11,0,0,0-3-.52,15.39,15.39,0,0,0-5.44.9,11.62,11.62,0,0,0-4.06,2.52,10.45,10.45,0,0,0-2.5,3.76,12.48,12.48,0,0,0-.83,4.56,15.63,15.63,0,0,0,.69,4.68,10.87,10.87,0,0,0,2.14,3.9,9.92,9.92,0,0,0,3.78,2.66,14.22,14.22,0,0,0,5.51,1,13,13,0,0,0,4.68-.76,12.31,12.31,0,0,0,3.59-2.14,6.53,6.53,0,0,0,1.54-1.62A3.55,3.55,0,0,0,680,243a2.63,2.63,0,0,0-.29-1.19,1.06,1.06,0,0,0-1-.57,1.74,1.74,0,0,0-1.07.43,13,13,0,0,0-1.36,1.28,11.93,11.93,0,0,1-1.24,1.19,10.68,10.68,0,0,1-2.14,1.33,5.45,5.45,0,0,1-2.28.48,5.65,5.65,0,0,1-3-.83,7.12,7.12,0,0,1-2.28-2.28,11.35,11.35,0,0,1-1.4-3.26,14.67,14.67,0,0,1-.48-3.76v-0.43h14.45l0.33,0a6.57,6.57,0,0,0,.71,0,1.52,1.52,0,0,0,.9-0.24A0.92,0.92,0,0,0,680.15,234.42Zm-16.26-1.85a1.65,1.65,0,0,1,0-.48,5.85,5.85,0,0,1,2-2.9,5.55,5.55,0,0,1,3.3-.9,3.72,3.72,0,0,1,2.92,1.14,5,5,0,0,1,1.21,2.9v0a0.36,0.36,0,0,0,.33.29h-9.79v-0.1Zm34.1-2v-3.18a1.19,1.19,0,0,0-.62-1,5.52,5.52,0,0,0-1.59-.71,14.07,14.07,0,0,0-2-.43,13.09,13.09,0,0,0-1.78-.14,11,11,0,0,0-7.13,2.09,6.22,6.22,0,0,0-2.57,4.94,5.56,5.56,0,0,0,.55,2.52,6,6,0,0,0,1.45,1.88,10.68,10.68,0,0,0,1.85,1.31q0.95,0.52,2.47,1.19a7.33,7.33,0,0,1,.81.38,8.63,8.63,0,0,1,2.5,1.59,3.12,3.12,0,0,1,.83,2.31,2.62,2.62,0,0,1-.88,2.09,2.88,2.88,0,0,1-1.93.76,6.74,6.74,0,0,1-2.23-.38,6,6,0,0,1-2-1.24,2.5,2.5,0,0,1-.48-0.67,8.82,8.82,0,0,0-.88-1.14,1.29,1.29,0,0,0-1-.43,1.82,1.82,0,0,0-1,.29,0.8,0.8,0,0,0-.48.48q0,0.71,0,1.95t-0.1,1.95a1.21,1.21,0,0,0,.79,1,7.48,7.48,0,0,0,2,.69,23.84,23.84,0,0,0,2.45.4,19.88,19.88,0,0,0,2.21.14,12.23,12.23,0,0,0,3.14-.43,10.83,10.83,0,0,0,3-1.33,7.11,7.11,0,0,0,2.31-2.35,6.42,6.42,0,0,0,.88-3.4,5.92,5.92,0,0,0-2-4.59,10.53,10.53,0,0,0-1.85-1.33q-1-.55-2.5-1.26a17.68,17.68,0,0,1-3.11-1.71,2.37,2.37,0,0,1-1-2,2.91,2.91,0,0,1,.74-2,2.38,2.38,0,0,1,1.83-.81,5.32,5.32,0,0,1,3.23,1.24,4.4,4.4,0,0,1,.76.71,9.79,9.79,0,0,0,1.07,1,1.91,1.91,0,0,0,2,.14A0.68,0.68,0,0,0,698,230.53Zm-381.6-94.64q0-9.44-4.42-13.8t-13.74-4.36q-9.32,0-13.74,4.36t-4.42,13.8v23.23q0,9.44,4.42,13.8t13.74,4.36q9.32,0,13.74-4.36t4.42-13.8V135.88Zm-10.17,23.23q0,8.71-8,8.71t-8-8.71V135.88q0-8.71,8-8.71t8,8.71v23.23Zm83.67,17.43V133.22q0-7.62-3.75-11.56a12.94,12.94,0,0,0-9.8-3.93,14.18,14.18,0,0,0-7.5,2.06q-3.39,2.06-5.81,7.74a12.56,12.56,0,0,0-4.54-7.32,12.9,12.9,0,0,0-7.93-2.48,12,12,0,0,0-7.32,2.18,14.9,14.9,0,0,0-4.78,6.9H338l-0.36-8.35h-9.68v58.09h10.41V135.4a17,17,0,0,1,3.09-6.54,6.75,6.75,0,0,1,5.26-1.94q7.14,0,7.14,8.23v41.39h10V135.4a17,17,0,0,1,3.09-6.54,6.75,6.75,0,0,1,5.26-1.94q7.14,0,7.14,8.23v41.39h10.53Zm22,28.2V169.28h0.48a12.06,12.06,0,0,0,4.78,6.11,14.07,14.07,0,0,0,7.44,1.88q6.53,0,10.17-3.93t3.63-11.56V133.22q0-7.62-3.69-11.56t-10.23-3.93a12.93,12.93,0,0,0-7.74,2.18,15.42,15.42,0,0,0-5,6.9h-0.48l-0.36-8.35h-9.32v86.28h10.29Zm16-45.38q0,4.6-1.94,6.66a7.44,7.44,0,0,1-5.69,2.06,7.12,7.12,0,0,1-5.45-1.94,16.33,16.33,0,0,1-3.15-6.53V135.4a16.36,16.36,0,0,1,3.15-6.54,7.12,7.12,0,0,1,5.45-1.94A7.45,7.45,0,0,1,425.9,129q1.93,2.06,1.94,6.66v23.72Zm58.23,17.18V131.28q0-13.55-17.3-13.55-8.84,0-13.73,3.57t-4.9,10.83v5h9.8v-3.75q0-6.53,8.23-6.53,7.5,0,7.5,5.93v2.42a3.29,3.29,0,0,1-1,2.42,7.88,7.88,0,0,1-2.54,1.63,28.15,28.15,0,0,1-3.57,1.21q-2,.54-3.93,1.15a48.59,48.59,0,0,0-7.2,2.6,16.08,16.08,0,0,0-4.78,3.27A11.34,11.34,0,0,0,450,152a21.89,21.89,0,0,0-.85,6.47v5.81q0,5.93,2.9,9.44t9.8,3.51q5.69,0,8.77-2.36a19.1,19.1,0,0,0,5-5.75h0.48l0.36,7.38h9.56Zm-10.29-15.37a11.38,11.38,0,0,1-3.57,5.2,9.47,9.47,0,0,1-5.87,1.69q-6.9,0-6.9-6.17v-5.2a8.7,8.7,0,0,1,1.45-5.32q1.45-1.93,6.53-3.51,3.39-1,5-1.45a11.59,11.59,0,0,0,3.39-1.81v16.58Zm57.31-24.81v-2.9q0-7.26-4.42-11.5t-13.49-4.24q-8.47,0-13,3.69a11.94,11.94,0,0,0-4.54,9.74v2.9a13.32,13.32,0,0,0,1.15,5.57,12.48,12.48,0,0,0,4.05,4.72q1.33,1,3.81,2.42t5,2.84q2.48,1.39,4.48,2.42l2.24,1.15q3.27,1.81,4.18,3.39a6.67,6.67,0,0,1,.91,3.39v2.3a5.87,5.87,0,0,1-1.94,4.84q-1.94,1.57-6.17,1.57-4.6,0-6.47-1.69t-1.88-5.2v-3.87H497v3.51q0,7.75,4.42,11.8t14.34,4.05q9.32,0,13.61-3.75t4.3-11.38v-2.66a12.92,12.92,0,0,0-1.63-7,16.37,16.37,0,0,0-4.66-4.6,37.23,37.23,0,0,0-7.5-4,51,51,0,0,1-8.11-4.11,12.48,12.48,0,0,1-3.45-2.84,5.13,5.13,0,0,1-.79-3v-1.81q0-5.69,8-5.69,4.11,0,5.93,1.69a6.3,6.3,0,0,1,1.81,4.84v3.39h9.8Zm47.4,0v-2.9q0-7.26-4.42-11.5t-13.49-4.24q-8.47,0-13,3.69a11.94,11.94,0,0,0-4.54,9.74v2.9a13.32,13.32,0,0,0,1.15,5.57,12.48,12.48,0,0,0,4.05,4.72q1.33,1,3.81,2.42t5,2.84q2.48,1.39,4.48,2.42l2.24,1.15q3.27,1.81,4.18,3.39a6.67,6.67,0,0,1,.91,3.39v2.3a5.87,5.87,0,0,1-1.94,4.84q-1.94,1.57-6.17,1.57-4.6,0-6.47-1.69t-1.88-5.2v-3.87h-9.92v3.51q0,7.75,4.42,11.8t14.34,4.05q9.32,0,13.61-3.75t4.3-11.38v-2.66a12.92,12.92,0,0,0-1.63-7,16.37,16.37,0,0,0-4.66-4.6,37.23,37.23,0,0,0-7.5-4,51,51,0,0,1-8.11-4.11,12.48,12.48,0,0,1-3.45-2.84,5.13,5.13,0,0,1-.79-3v-1.81q0-5.69,8-5.69,4.11,0,5.93,1.69a6.3,6.3,0,0,1,1.81,4.84v3.39h9.8Zm22-25V98.25H592v13.07h10.41Zm0,65.23V118.46H592v58.09h10.41Zm47.85-40.66q0-9.44-4.42-13.8t-13.74-4.36q-9.32,0-13.73,4.36T614,135.88v23.23q0,9.44,4.42,13.8t13.73,4.36q9.32,0,13.74-4.36t4.42-13.8V135.88Zm-10.17,23.23q0,8.71-8,8.71t-8-8.71V135.88q0-8.71,8-8.71t8,8.71v23.23ZM699,176.54V133.22q0-7.62-3.87-11.56a13.48,13.48,0,0,0-10-3.93,13,13,0,0,0-7.69,2.18,15.2,15.2,0,0,0-5,6.9h-0.48l-0.36-8.35h-9.68v58.09h10.41V135.4q1.33-4.6,3.21-6.54a7.33,7.33,0,0,1,5.51-1.94q7.5,0,7.5,8.23v41.39H699Z" transform="translate(-14.66 -11.72)"/></svg>